<?xml version="1.0" encoding="UTF-8"?>
<svg id="_Слой_2" data-name="Слой 2" xmlns="http://www.w3.org/2000/svg" viewBox="0 0 520.44 91.03">
  <defs>
    <style>
      .cls-1 {
        fill: #fff;
      }
    </style>
  </defs>
  <g id="_Слой_1-2" data-name="Слой 1">
    <g>
      <path class="cls-1" d="M55.92,66.64h71.07v24.39H0v-24.39L73.32,24.39H0V0h126.99v24.15l.31.62-71.38,41.86Z"/>
      <g>
        <path class="cls-1" d="M421.74,31.07h-17.63c-2.28,0-4.36.52-6.25,1.55-1.89,1.04-3.46,2.43-4.7,4.19-1.24,1.76-2.02,3.73-2.33,5.9h30.91c1.6,0,2.98-.57,4.12-1.71,1.14-1.14,1.71-2.51,1.71-4.12s-.57-2.98-1.71-4.12c-1.14-1.14-2.51-1.71-4.12-1.71Z"/>
        <path class="cls-1" d="M138.74,0v91.03h381.7V0H138.74ZM233.25,52.93c-1.09,2.56-2.6,4.83-4.54,6.8-1.94,1.97-4.19,3.51-6.76,4.62-2.56,1.11-5.32,1.67-8.27,1.67h-17.48v-7.77h17.48c2.49-.05,4.75-.69,6.8-1.9,2.04-1.22,3.66-2.85,4.85-4.89,1.19-2.04,1.79-4.31,1.79-6.8s-.6-4.76-1.79-6.83c-1.19-2.07-2.81-3.71-4.85-4.93-2.05-1.22-4.31-1.83-6.8-1.83h-21.36v50.48h-7.77V23.3h29.13c2.95,0,5.71.56,8.27,1.67,2.56,1.11,4.82,2.65,6.76,4.62,1.94,1.97,3.46,4.23,4.54,6.8,1.09,2.56,1.63,5.32,1.63,8.27s-.54,5.71-1.63,8.27ZM258.57,66.02h-1.94c-2.49,0-4.76-.61-6.83-1.83-2.07-1.22-3.72-2.85-4.93-4.89-1.22-2.05-1.83-4.34-1.83-6.87V7.77h7.77v44.66c0,1.61.57,2.98,1.71,4.12,1.14,1.14,2.51,1.71,4.12,1.71h1.94v7.77ZM313.94,66.02h-38.83c-2.49,0-4.76-.61-6.83-1.83-2.07-1.22-3.72-2.85-4.93-4.89-1.22-2.05-1.83-4.34-1.83-6.87s.61-4.83,1.83-6.87c1.22-2.05,2.86-3.68,4.93-4.89,2.07-1.22,4.35-1.83,6.83-1.83h27.18v7.77h-27.18c-1.61,0-2.98.57-4.12,1.71-1.14,1.14-1.71,2.51-1.71,4.12s.57,2.98,1.71,4.12c1.14,1.14,2.51,1.71,4.12,1.71h31.07v-21.36c0-1.6-.57-2.98-1.71-4.12-1.14-1.14-2.51-1.71-4.12-1.71h-31.07v-7.77h31.07c2.54,0,4.83.61,6.87,1.83,2.05,1.22,3.68,2.85,4.89,4.89,1.22,2.05,1.83,4.34,1.83,6.87v29.13ZM374.45,67.96c0,2.49-.61,4.76-1.83,6.83-1.22,2.07-2.85,3.71-4.89,4.93-2.05,1.22-4.34,1.83-6.87,1.83h-31.07v-7.77h31.07c1.6,0,2.98-.57,4.12-1.71,1.14-1.14,1.71-2.51,1.71-4.12v-1.94h-21.36c-2.95,0-5.71-.56-8.27-1.67-2.56-1.11-4.82-2.65-6.76-4.62-1.94-1.97-3.46-4.23-4.54-6.8-1.09-2.56-1.63-5.32-1.63-8.27v-21.36h7.77v21.36c0,2.49.61,4.75,1.83,6.8,1.22,2.05,2.83,3.68,4.85,4.89,2.02,1.22,4.27,1.85,6.76,1.9h21.36V23.3h7.77v44.66ZM433.51,43.73c-1.22,2.07-2.85,3.72-4.89,4.93-2.05,1.22-4.34,1.83-6.87,1.83h-29.75c1.09,2.28,2.71,4.14,4.85,5.59,2.15,1.45,4.57,2.17,7.26,2.17h25.4v7.77h-25.4c-2.95,0-5.71-.56-8.27-1.67-2.56-1.11-4.81-2.65-6.76-4.62-1.94-1.97-3.46-4.23-4.54-6.8-1.09-2.56-1.63-5.32-1.63-8.27s.54-5.71,1.63-8.27c1.09-2.56,2.6-4.83,4.54-6.8,1.94-1.97,4.19-3.51,6.76-4.62,2.56-1.11,5.32-1.67,8.27-1.67h17.63c2.54,0,4.83.61,6.87,1.83,2.04,1.22,3.68,2.85,4.89,4.89,1.22,2.05,1.83,4.34,1.83,6.87s-.61,4.76-1.83,6.83ZM485.35,31.07h-29.13c-1.61,0-2.98.57-4.12,1.71-1.14,1.14-1.71,2.51-1.71,4.12v29.13h-7.77v-29.13c0-2.54.61-4.83,1.83-6.87,1.22-2.05,2.86-3.68,4.93-4.89,2.07-1.22,4.35-1.83,6.83-1.83h29.13v7.77Z"/>
      </g>
    </g>
  </g>
</svg>