<?xml version="1.0" encoding="UTF-8"?>
<svg id="_Слой_2" data-name="Слой 2" xmlns="http://www.w3.org/2000/svg" viewBox="0 0 22.27 16.92">
  <defs>
    <style>
      .cls-1 {
        fill: #fff;
      }
    </style>
  </defs>
  <g id="_Слой_1-2" data-name="Слой 1">
    <g>
      <path class="cls-1" d="M18.42,5.92l3.58-2.4c.36-.24.36-.77,0-1.02L18.42.1c-.41-.27-.95.02-.95.51v4.8c0,.49.55.78.95.51Z"/>
      <path class="cls-1" d="M18.42,11c-.41-.27-.95.02-.95.51v4.8c0,.49.55.78.95.51l3.58-2.4c.36-.24.36-.77,0-1.02l-3.58-2.4Z"/>
      <path class="cls-1" d="M10.18,4.52c-1.55-1.98-3.93-3.17-6.5-3.17h-1.99c-.93,0-1.69.76-1.69,1.69s.76,1.69,1.69,1.69h1.98c2.32,0,4.31,1.62,4.79,3.87-.48,2.26-2.47,3.87-4.79,3.87h-1.98c-.93,0-1.69.76-1.69,1.69s.76,1.69,1.69,1.69h1.99c2.57,0,4.96-1.19,6.5-3.17,1.38,1.77,3.44,2.9,5.72,3.12l.97.09v-3.36l-.78-.1c-2.09-.25-3.75-1.79-4.19-3.83.44-2.04,2.1-3.58,4.19-3.83l.78-.1V1.31l-.97.09c-2.28.21-4.33,1.35-5.72,3.12Z"/>
    </g>
  </g>
</svg>