<?xml version="1.0" encoding="UTF-8"?>
<svg id="_Слой_2" data-name="Слой 2" xmlns="http://www.w3.org/2000/svg" viewBox="0 0 25.29 16.16">
  <defs>
    <style>
      .cls-1 {
        fill: #fff;
      }
    </style>
  </defs>
  <g id="_Слой_1-2" data-name="Слой 1">
    <g>
      <path class="cls-1" d="M25.28,8.57c.15,4.16-3.19,7.59-7.32,7.59H7.33C3.33,16.16.07,12.95,0,8.97-.07,4.87,3.42,1.52,7.52,1.52h.56v3h-.75c-2.52,0-4.55,2.17-4.31,4.74.21,2.24,2.18,3.91,4.43,3.91h10.51c2.52,0,4.54-2.17,4.31-4.74-.21-2.24-2.18-3.91-4.44-3.91h-.39c-.42,0-.79-.17-1.06-.44-.27-.27-.44-.64-.44-1.06,0-.83.67-1.5,1.5-1.5h.32c3.89,0,7.38,3.17,7.51,7.06Z"/>
      <path class="cls-1" d="M9.64,5.92l3.58-2.4c.36-.24.36-.77,0-1.02L9.64.11c-.41-.27-.95.02-.95.51v4.8c0,.49.55.78.95.51Z"/>
    </g>
  </g>
</svg>